<svg width="80" height="80" viewBox="0 0 80 80" fill="none" xmlns="http://www.w3.org/2000/svg">
<path d="M63.825 61.175C64.0092 61.3467 64.157 61.5537 64.2594 61.7837C64.3619 62.0137 64.417 62.2619 64.4215 62.5137C64.4259 62.7655 64.3796 63.0155 64.2853 63.249C64.191 63.4825 64.0506 63.6945 63.8726 63.8726C63.6945 64.0506 63.4824 64.191 63.249 64.2853C63.0155 64.3796 62.7654 64.4259 62.5137 64.4215C62.2619 64.417 62.0136 64.3619 61.7836 64.2595C61.5536 64.157 61.3466 64.0092 61.175 63.825L40 42.6531L18.825 63.825C18.4695 64.1562 17.9994 64.3365 17.5137 64.3279C17.0279 64.3194 16.5645 64.1226 16.2209 63.7791C15.8774 63.4355 15.6806 62.9721 15.672 62.4863C15.6635 62.0006 15.8438 61.5304 16.175 61.175L37.3469 40L16.175 18.825C15.8438 18.4696 15.6635 17.9994 15.672 17.5137C15.6806 17.0279 15.8774 16.5645 16.2209 16.2209C16.5645 15.8774 17.0279 15.6806 17.5137 15.6721C17.9994 15.6635 18.4695 15.8438 18.825 16.175L40 37.3469L61.175 16.175C61.5304 15.8438 62.0005 15.6635 62.4863 15.6721C62.972 15.6806 63.4355 15.8774 63.779 16.2209C64.1226 16.5645 64.3194 17.0279 64.3279 17.5137C64.3365 17.9994 64.1562 18.4696 63.825 18.825L42.6531 40L63.825 61.175Z" fill="#F7F0E9"/>
</svg>
