<svg width="80" height="80" viewBox="0 0 80 80" fill="none" xmlns="http://www.w3.org/2000/svg">
<g clip-path="url(#clip0_126_137)">
<path fill-rule="evenodd" clip-rule="evenodd" d="M0 0.5C0 0.223858 0.223858 0 0.5 0H72C72.2761 0 72.5 0.223858 72.5 0.5V7C72.5 7.27614 72.7239 7.5 73 7.5H79.5C79.7761 7.5 80 7.72386 80 8V79.5C80 79.7761 79.7761 80 79.5 80H72.5H7.70711C7.5745 80 7.44732 79.9473 7.35355 79.8536L0.146447 72.6464C0.0526784 72.5527 0 72.4255 0 72.2929V0.5Z" fill="#BB5A5A"/>
<path fill-rule="evenodd" clip-rule="evenodd" d="M77.5001 7.54143C77.5001 7.51491 77.4895 7.48947 77.4708 7.47072L72.6708 2.67071C72.6078 2.60771 72.5001 2.65233 72.5001 2.74142V72.4C72.5001 72.4552 72.4553 72.5 72.4001 72.5L3.9915 72.5C3.90241 72.5 3.85779 72.6077 3.92079 72.6707L8.72078 77.4707C8.73953 77.4895 8.76497 77.5 8.79149 77.5L77.4001 77.5C77.4553 77.5 77.5001 77.4552 77.5001 77.4V7.54143Z" fill="#F7F0E9"/>
<path d="M25.16 49.2C24.84 49.2 24.6 49.16 24.44 49.08C24.28 49.0267 24.2 48.92 24.2 48.76C24.2 48.44 24.68 48.2 25.64 48.04C26.6267 47.8533 27.52 47.5467 28.32 47.12C29.12 46.6667 29.6533 45.9733 29.92 45.04L35.56 26.6C35.8533 25.64 35.8933 25.04 35.68 24.8C35.4933 24.5333 34.96 24.3067 34.08 24.12C33.68 24.04 33.4133 23.9333 33.28 23.8C33.1467 23.6667 33.08 23.5067 33.08 23.32C33.08 23.16 33.2 23.0533 33.44 23C33.68 22.92 33.96 22.88 34.28 22.88C34.9467 22.88 35.48 22.8933 35.88 22.92C36.3067 22.9467 36.7067 22.9867 37.08 23.04C37.4533 23.0667 37.9067 23.08 38.44 23.08C39.0533 23.08 39.6 23.0667 40.08 23.04C40.56 22.9867 41.0533 22.9467 41.56 22.92C42.0667 22.8933 42.6533 22.88 43.32 22.88C43.9333 22.88 44.24 23.0267 44.24 23.32C44.24 23.5333 44.0933 23.6933 43.8 23.8C43.5067 23.88 43.1333 23.9467 42.68 24C41.9867 24.0533 41.36 24.1733 40.8 24.36C40.2667 24.52 39.8133 24.76 39.44 25.08C39.0667 25.3733 38.8 25.7867 38.64 26.32L33.24 44.48C32.9467 45.4933 32.9067 46.3067 33.12 46.92C33.3333 47.5067 33.9333 47.8 34.92 47.8H38.12C39.5867 47.8 40.76 47.6533 41.64 47.36C42.5467 47.04 43.2533 46.6267 43.76 46.12C44.2667 45.6133 44.6933 45.1067 45.04 44.6C45.3867 44.0933 45.7733 43.5333 46.2 42.92C46.3333 42.76 46.4267 42.6533 46.48 42.6C46.56 42.5467 46.68 42.52 46.84 42.52C46.9733 42.52 47.0533 42.56 47.08 42.64C47.1333 42.72 47.16 42.84 47.16 43C47.16 43.1867 47.08 43.52 46.92 44C46.7867 44.48 46.6133 45.0267 46.4 45.64C46.1867 46.2267 45.96 46.7867 45.72 47.32C45.5067 47.8533 45.3067 48.2667 45.12 48.56C45.0133 48.72 44.88 48.8667 44.72 49C44.56 49.1333 44.3867 49.2 44.2 49.2C42.68 49.2 41.2667 49.1867 39.96 49.16C38.68 49.1333 37.4667 49.1067 36.32 49.08C35.1733 49.0533 34.0933 49.0267 33.08 49C32.0667 48.9733 31.0933 48.96 30.16 48.96C29.1733 48.96 28.3467 49 27.68 49.08C27.0133 49.16 26.1733 49.2 25.16 49.2Z" fill="#F7F0E9"/>
</g>
<defs>
<clipPath id="clip0_126_137">
<rect width="80" height="80" fill="white"/>
</clipPath>
</defs>
</svg>
