<svg width="430" height="430" viewBox="0 0 430 430" fill="none" xmlns="http://www.w3.org/2000/svg">
<path fill-rule="evenodd" clip-rule="evenodd" d="M0 4C0 1.79086 1.79086 0 4 0H396C398.209 0 400 1.79086 400 4V26C400 28.2091 401.791 30 404 30H426C428.209 30 430 31.7909 430 34V426C430 428.209 428.209 430 426 430H400H31.6569C30.596 430 29.5786 429.579 28.8284 428.828L1.17157 401.172C0.421427 400.421 0 399.404 0 398.343V4Z" fill="#401F1F"/>
<path fill-rule="evenodd" clip-rule="evenodd" d="M420 40.4142C420 40.149 419.895 39.8947 419.707 39.7071L401.707 21.7071C401.077 21.0772 400 21.5233 400 22.4142V399C400 399.552 399.552 400 399 400L12.4142 400C11.5233 400 11.0772 401.077 11.7071 401.707L29.7071 419.707C29.8947 419.895 30.149 420 30.4142 420L419 420C419.552 420 420 419.552 420 419V40.4142Z" fill="#F7F0E9"/>
</svg>
