<svg width="80" height="80" viewBox="0 0 80 80" fill="none" xmlns="http://www.w3.org/2000/svg">
<path d="M68.825 41.325L46.325 63.825C45.9696 64.1562 45.4994 64.3365 45.0137 64.3279C44.5279 64.3194 44.0645 64.1226 43.7209 63.7791C43.3774 63.4355 43.1806 62.9721 43.1721 62.4863C43.1635 62.0006 43.3438 61.5304 43.675 61.175L62.9719 41.875H12.5C12.0027 41.875 11.5258 41.6775 11.1742 41.3258C10.8225 40.9742 10.625 40.4973 10.625 40C10.625 39.5027 10.8225 39.0258 11.1742 38.6742C11.5258 38.3225 12.0027 38.125 12.5 38.125H62.9719L43.675 18.825C43.3438 18.4696 43.1635 17.9994 43.1721 17.5137C43.1806 17.0279 43.3774 16.5645 43.7209 16.2209C44.0645 15.8774 44.5279 15.6806 45.0137 15.6721C45.4994 15.6635 45.9696 15.8438 46.325 16.175L68.825 38.675C69.1761 39.0266 69.3734 39.5031 69.3734 40C69.3734 40.4969 69.1761 40.9734 68.825 41.325Z" fill="#401F1F"/>
</svg>
