<svg width="40" height="64" viewBox="0 0 40 64" fill="none" xmlns="http://www.w3.org/2000/svg">
<path d="M0 0H40V62.1727C40 62.963 39.1266 63.441 38.4609 63.015L20.5391 51.545C20.2105 51.3347 19.7895 51.3347 19.4609 51.545L1.53906 63.015C0.873447 63.441 0 62.963 0 62.1727V0Z" fill="#F7F0E9"/>
<path d="M17.8 29.06C17.6933 29.06 17.6067 29.04 17.54 29C17.4733 28.9467 17.44 28.88 17.44 28.8C17.44 28.6933 17.48 28.6133 17.56 28.56C17.64 28.5067 17.7333 28.4667 17.84 28.44C18.16 28.36 18.3867 28.2733 18.52 28.18C18.6667 28.0867 18.74 27.9267 18.74 27.7V23.36C18.74 22.9333 18.6733 22.6133 18.54 22.4C18.4067 22.1867 18.18 22.0533 17.86 22C17.7933 21.9867 17.74 21.9533 17.7 21.9C17.66 21.8333 17.64 21.76 17.64 21.68C17.64 21.4933 17.7133 21.3933 17.86 21.38C18.5 21.2467 19.0533 21.0667 19.52 20.84C20 20.6 20.3667 20.4133 20.62 20.28C20.8067 20.1867 20.9267 20.14 20.98 20.14C21.1267 20.14 21.2 20.2067 21.2 20.34C21.1867 20.5267 21.16 20.7867 21.12 21.12C21.08 21.44 21.04 21.7867 21 22.16C20.9733 22.52 20.96 22.86 20.96 23.18V27.68C20.96 27.88 21.0333 28.0333 21.18 28.14C21.3267 28.2467 21.56 28.3467 21.88 28.44C21.9867 28.48 22.08 28.5267 22.16 28.58C22.24 28.62 22.28 28.6933 22.28 28.8C22.28 28.96 22.1667 29.04 21.94 29.04C21.6867 29.04 21.44 29.0333 21.2 29.02C20.9733 29.0067 20.7467 28.9933 20.52 28.98C20.3067 28.9667 20.08 28.96 19.84 28.96C19.6133 28.96 19.3933 28.9667 19.18 28.98C18.9667 28.9933 18.7467 29.0067 18.52 29.02C18.3067 29.0467 18.0667 29.06 17.8 29.06ZM19.8 18.98C19.4133 18.98 19.0867 18.8467 18.82 18.58C18.5533 18.3133 18.42 17.9933 18.42 17.62C18.42 17.2067 18.5533 16.8667 18.82 16.6C19.0867 16.3333 19.4133 16.2 19.8 16.2C20.2 16.2 20.5333 16.3333 20.8 16.6C21.0667 16.8667 21.2 17.2067 21.2 17.62C21.2 17.9933 21.0667 18.3133 20.8 18.58C20.5333 18.8467 20.2 18.98 19.8 18.98Z" fill="#401F1F"/>
</svg>
